# xmcd CD database file
#
# Track frame offsets:
#	150
#	12092
#	27835
#	44197
#	58752
#	72915
#	87020
#	104087
#	119085
#	134682
#	148820
#	161445
#	175180
#
# Disc length: 2457 seconds
#
# Revision: 0
# Processed by: cddbd v1.5.2PL0 Copyright (c) Steve Scherf et al.
# Submitted via: CDex 1.51
#
DISCID=c209970d
DTITLE=Various Artist - Anthologie Jazz Magazine CD1
DYEAR=2008
DGENRE=Jazz
TTITLE0=Victor Military Band (1911) - Alexander's Ragtime Band
TTITLE1=Europe Society Orchestra (1914) - Castle House Rag
TTITLE2=The Versatile Four (1916) - Down Home Rag
TTITLE3=Scott Joplin (1916) - Maple Leaf Rag
TTITLE4=The Original Dixieland Jass Band (1917) - Livery Stable Blues
TTITLE5=The Original Dixieland Jass Band (1918) - Tiger Rag
TTITLE6=Ciro's Club Coon Orchestra (1918) - The St Louis Blues
TTITLE7=Paul Whiteman and his Ambassador Orchestra (1920) - The Wang-Wang Blues
TTITLE8=Mamie Smith and her Jazz Hounds (1920) - Crazy Blues
TTITLE9=Billy Arnold's Novelty Jazz Band (1920) - Left Alone Again Blues
TTITLE10=James P Johnson (1921) - Carolina Shout
TTITLE11=Jazzbo Carolina's Serenaders (1922) - The Yankee Doodle Blues
TTITLE12=Mitchell's Jazz Kings (1922) - Montmartre Rag
EXTD=YEAR: 2008
EXTT0=
EXTT1=
EXTT2=
EXTT3=
EXTT4=
EXTT5=
EXTT6=
EXTT7=
EXTT8=
EXTT9=
EXTT10=
EXTT11=
EXTT12=
PLAYORDER=
